<?xml version="1.0" standalone="no"?>
<!DOCTYPE svg PUBLIC "-//W3C//DTD SVG 1.1//EN" "http://www.w3.org/Graphics/SVG/1.1/DTD/svg11.dtd" >
<svg xmlns="http://www.w3.org/2000/svg">
<metadata>Generated by IcoMoon</metadata>
<defs>
<font id="icomoon" horiz-adv-x="1024">
<font-face units-per-em="1024" ascent="960" descent="-64" />
<missing-glyph horiz-adv-x="1024" />
<glyph unicode="&#x20;" horiz-adv-x="512" d="" />
<glyph unicode="&#xe900;" glyph-name="angel-down" d="M55.296 597.504c-25.6 24.576-25.6 64.512 0 89.088s68.608 24.576 94.208 0l362.496-343.040 362.496 343.040c25.6 24.576 68.608 24.576 94.208 0s25.6-64.512 0-89.088l-409.6-388.096c-13.312-12.288-29.696-18.432-47.104-18.432s-33.792 6.144-47.104 18.432l-409.6 388.096z" />
<glyph unicode="&#xe901;" glyph-name="arrow-down" d="M867.328 138.752h-694.272c-43.008 0-77.824-34.816-77.824-78.848 0-43.008 34.816-78.848 77.824-78.848h694.272c43.008 0 77.824 34.816 77.824 78.848s-34.816 78.848-77.824 78.848zM462.848 224.768c14.336-14.336 32.768-21.504 51.2-22.528 2.048 0 4.096-1.024 6.144-1.024s4.096 0 6.144 1.024c18.432 1.024 36.864 8.192 51.2 22.528l248.832 248.832c30.72 30.72 30.72 81.92 0 112.64s-81.92 30.72-112.64 0l-114.688-114.688v372.736c0 43.008-34.816 78.848-78.848 78.848-43.008 0-78.848-34.816-78.848-78.848v-372.736l-114.688 114.688c-30.72 30.72-81.92 30.72-112.64 0s-30.72-81.92 0-112.64l248.832-248.832z" />
<glyph unicode="&#xe902;" glyph-name="tile-1" d="M481.536 447.59h-152.197c3.686 6.431 9.134 14.459 15.391 23.583 12.104 17.654 21.115 38.072 20.818 61.204-0.655 52.163-43.213 94.771-95.375 95.498-0.451 0-0.922 0.020-1.372 0.020-53.443 0-96.748-43.315-96.748-96.748 0-22.63 8.878-42.609 20.767-59.894 5.775-8.417 11.756-17.224 15.442-23.665h-142.039c-22.436 0-40.622-18.186-40.622-40.632v-405.146c0-22.436 18.186-40.622 40.622-40.622h415.191v128.133c-16.538-7.588-34.662-11.612-53.084-11.612-17.316 0-34.12 3.43-49.94 10.179-15.268 6.523-28.948 15.841-40.632 27.709-24.095 24.422-37.1 56.791-36.628 91.126 0.461 33.208 13.742 64.512 37.396 88.125 23.654 23.634 54.968 36.864 88.197 37.284 0.543 0.020 1.075 0.020 1.618 0.020 18.422 0 36.536-4.024 53.084-11.622l0.113 127.058zM951.030-41.206h-443.771v171.684c-3.461-2.345-7.342-4.946-11.581-7.639-14.172-8.96-36.014-20.89-62.024-20.89-36.844 0-71.055 19.907-89.283 51.978-8.991 15.811-13.599 33.823-13.343 52.091 0.768 55.081 46.213 100.485 101.304 101.171 0.020 0 0.051 0 0.082 0 22.364 0 43.305-7.086 63.539-21.074 4.26-2.929 8.038-5.499 11.305-7.69l-0.010 142.438h145.5l-5.243-11.438c-7.148-15.596-10.824-32.891-10.598-49.992 0.379-30.351 12.493-58.993 34.068-80.599 21.596-21.627 50.217-33.772 80.558-34.181l1.638-0.020c31.058 0 60.262 12.093 82.227 34.058 21.955 21.955 34.058 51.159 34.058 82.227 0 16.589-3.666 33.382-10.619 48.527l-5.243 11.418h145.213v-414.29c0-26.337-21.443-47.78-47.78-47.78zM523.387-25.068h427.643c17.449 0 31.642 14.193 31.642 31.642v398.162h-104.581c4.915-14.070 7.485-29.010 7.485-43.817 0-35.359-13.763-68.618-38.779-93.624-25.016-25.016-58.266-38.779-93.624-38.779l-1.966 0.020c-34.468 0.471-67.041 14.285-91.628 38.902s-38.359 57.211-38.799 91.802c-0.184 15.391 2.365 30.904 7.465 45.507h-104.858l0.020-154.89-12.063 6.912c-4.618 2.632-12.646 7.905-24.535 16.087-17.521 12.114-35.389 18.237-53.135 18.237-47.544-0.594-85.852-38.861-86.497-85.279-0.215-15.401 3.666-30.587 11.233-43.899 15.37-27.034 44.206-43.817 75.264-43.817 16.835 0 33.3 5.673 53.391 18.401 4.997 3.154 9.462 6.195 13.332 8.817 4.403 2.98 8.069 5.468 10.926 7.107l12.083 6.943v-184.433zM957.778 934.82h-445.778v-186.624c0 0 16.333 14.141 21.555 17.859 16.763 13.926 38.308 22.323 61.809 22.323 53.893 0 97.495-44.073 96.748-98.12-0.727-52.163-43.336-94.72-95.498-95.386-0.42 0-0.829 0-1.239 0-23.501 0-45.046 8.387-61.809 22.313-5.233 3.707-21.565 17.848-21.565 17.848v-186.624h182.661c-1.413-2.888-9.564-15.247-16.23-24.668-12.104-17.101-20.255-37.489-19.968-60.119 0.655-52.163 43.213-94.771 95.375-95.498 0.451-0.020 0.911-0.020 1.372-0.020 25.016 0 47.821 9.503 64.993 25.078 19.507 17.705 31.764 43.254 31.764 71.67 0 22.18-8.356 41.953-20.009 58.911-7.414 10.813-13.025 19.108-16.036 24.34-0.061 0.092-0.113 0.195-0.174 0.297h182.651v445.788c0 22.446-18.186 40.632-40.622 40.632z" />
<glyph unicode="&#xe903;" glyph-name="tile-2" d="M957.614-46.459h-453.96v175.616c-3.543-2.396-7.506-5.059-11.848-7.813-14.49-9.165-36.844-21.371-63.447-21.371-37.683 0-72.684 20.367-91.331 53.176-9.185 16.159-13.896 34.58-13.65 53.289 0.778 56.351 47.278 102.789 103.629 103.496 0.020 0 0.061 0 0.082 0 22.876 0 44.298-7.25 64.993-21.555 4.362-3 8.223-5.622 11.571-7.864l-0.020 145.695h148.838l-5.366-11.694c-7.311-15.954-11.069-33.649-10.844-51.139 0.389-31.048 12.78-60.344 34.857-82.452 22.088-22.118 51.364-34.55 82.401-34.97l1.679-0.020c31.775 0 61.645 12.37 84.111 34.836s34.836 52.337 34.836 84.111c0 16.968-3.758 34.14-10.865 49.644l-5.366 11.684h148.562v-423.793c-0.010-26.952-21.924-48.876-48.865-48.876zM520.151-29.962h437.463c17.838 0 32.358 14.52 32.358 32.369v407.296h-106.988c5.028-14.387 7.649-29.676 7.649-44.831 0-36.178-14.080-70.185-39.67-95.775s-59.597-39.67-95.775-39.67l-2.017 0.020c-35.256 0.481-68.577 14.612-93.727 39.803-25.149 25.18-39.24 58.522-39.69 93.911-0.195 15.739 2.417 31.611 7.639 46.551h-107.264l0.020-158.444-12.339 7.076c-4.731 2.693-12.943 8.090-25.098 16.456-17.93 12.39-36.209 18.657-54.354 18.657-48.64-0.614-87.818-39.752-88.474-87.235-0.215-15.77 3.758-31.293 11.489-44.902 15.729-27.648 45.22-44.831 76.984-44.831 17.213 0 34.058 5.796 54.61 18.821 5.12 3.226 9.687 6.328 13.64 9.021 4.506 3.041 8.253 5.591 11.172 7.27l12.36 7.107v-188.672zM957.737 934.738h-445.706v-186.593c0 0 16.333 14.141 21.555 17.848 16.763 13.926 38.298 22.323 61.798 22.323 53.883 0 97.475-44.073 96.727-98.109-0.727-52.152-43.325-94.71-95.488-95.365-0.42 0-0.829 0-1.239 0-23.501 0-45.046 8.387-61.798 22.313-5.222 3.717-21.555 17.848-21.555 17.848v-186.593h182.63c-1.403-2.888-9.564-15.247-16.23-24.668-12.104-17.101-20.244-37.489-19.968-60.109 0.655-52.152 43.203-94.761 95.355-95.478 0.451-0.020 0.911-0.020 1.372-0.020 25.016 0 47.811 9.503 64.983 25.078 19.507 17.705 31.754 43.244 31.754 71.66 0 22.18-8.356 41.943-20.009 58.9-7.414 10.803-13.025 19.108-16.026 24.34-0.061 0.092-0.113 0.195-0.174 0.297h182.63v445.706c0 22.436-18.176 40.622-40.612 40.622zM489.974-46.991h-423.803c-26.941 0-48.865 21.934-48.865 48.876v453.949h175.606c-2.396 3.543-5.048 7.516-7.803 11.858-9.175 14.479-21.371 36.823-21.371 63.427 0 37.693 20.378 72.704 53.176 91.341 15.739 8.94 33.649 13.65 51.794 13.65 57.846-0.778 104.264-47.268 104.98-103.629 0.020-22.886-7.24-44.329-21.545-65.065-3.185-4.628-5.765-8.438-7.875-11.581l145.695 0.020v-148.818l-11.694 5.366c-15.483 7.107-32.655 10.865-49.664 10.865-32.543-0.399-61.819-12.79-83.958-34.867-22.118-22.088-34.529-51.364-34.959-82.401l0.010-1.71c0-31.775 12.37-61.645 34.826-84.111s52.337-34.836 84.111-34.836c16.978 0 34.14 3.758 49.644 10.865l11.694 5.366v-148.562zM33.802 439.327v-437.453c0-17.848 14.52-32.369 32.358-32.369h407.306v106.988c-14.397-5.028-29.676-7.649-44.831-7.649-36.178 0-70.195 14.080-95.775 39.67-25.58 25.569-39.66 59.587-39.66 95.775l0.010 1.915c0.492 35.369 14.623 68.69 39.803 93.839 25.201 25.149 58.542 39.24 93.901 39.69l1.72 0.020c15.165 0 30.464-2.621 44.851-7.649v107.244l-158.444-0.020 7.055 12.339c2.693 4.7 8.233 13.158 16.476 25.098 12.37 17.93 18.647 36.219 18.647 54.354-0.614 48.64-39.731 87.828-87.224 88.474-0.020 0-0.041 0-0.061 0-16.548 0-31.611-3.973-44.861-11.489-27.648-15.708-44.831-45.21-44.831-76.984 0-17.224 5.796-34.058 18.811-54.61 3.226-5.1 6.328-9.656 9.001-13.609 3.082-4.516 5.622-8.294 7.301-11.233l7.055-12.339h-188.611z" />
<glyph unicode="&#xe904;" glyph-name="tile-3" d="M481.434-38.4v128.031c-16.527-7.588-34.632-11.602-53.043-11.602-17.306 0-34.089 3.43-49.9 10.168-15.258 6.513-28.918 15.831-40.602 27.679-24.074 24.402-37.069 56.74-36.598 91.044 0.461 33.178 13.732 64.451 37.356 88.044 23.634 23.613 54.927 36.833 88.115 37.243 0.543 0.020 1.075 0.020 1.618 0.020 18.401 0 36.506-4.024 53.033-11.612l0.123 126.966h-152.064c3.686 6.431 9.124 14.438 15.37 23.562 12.093 17.644 21.094 38.031 20.797 61.153-0.655 52.122-43.172 94.689-95.293 95.416-0.451 0-0.922 0.020-1.362 0.020-53.391 0-96.666-43.284-96.666-96.666 0-22.61 8.868-42.578 20.746-59.843 5.775-8.407 11.745-17.213 15.432-23.644h-141.896c-22.415 0-40.581-18.166-40.581-40.591v-404.797c0-22.426 18.176-40.591 40.581-40.591h414.833zM870.492 417.976c7.588-16.517 11.612-34.642 11.612-53.043 0-33.946-13.22-65.864-37.222-89.876-24.013-24.003-55.931-37.233-89.887-37.233-0.594 0-1.198 0.020-1.792 0.020-33.188 0.461-64.461 13.732-88.064 37.366-23.603 23.624-36.823 54.927-37.243 88.115-0.236 18.975 3.789 37.642 11.592 54.661h-127.631l0.020-152.371c-5.376 3.082-15.329 9.789-24.484 16.108-16.968 11.704-36.782 20.081-58.993 20.081-0.42 0-0.829-0.020-1.249-0.020-52.122-0.645-94.689-43.172-95.416-95.283-0.246-17.859 4.352-34.632 12.554-49.070 16.62-29.245 48.056-48.968 84.101-48.968 22.2 0 41.564 9.052 58.982 20.081 10.732 6.799 19.118 13.025 24.484 16.097v-182.508h445.399c22.415 0 40.581 18.186 40.581 40.591v415.252h-127.345zM957.399 934.4h-445.399v-186.47c0 0 16.323 14.131 21.545 17.838 16.753 13.916 38.277 22.313 61.757 22.313 53.842 0 97.403-44.042 96.655-98.038-0.727-52.122-43.295-94.638-95.416-95.304-0.42 0-0.829 0-1.239 0-23.48 0-45.015 8.376-61.757 22.292-5.222 3.717-21.545 17.848-21.545 17.848v-186.47h182.508c-1.403-2.877-9.554-15.237-16.22-24.648-12.093-17.080-20.234-37.458-19.948-60.068 0.655-52.122 43.172-94.689 95.293-95.416 0.451-0.020 0.911-0.020 1.372-0.020 24.996 0 47.78 9.492 64.932 25.057 19.487 17.695 31.734 43.213 31.734 71.608 0 22.159-8.346 41.912-19.988 58.86-7.414 10.803-13.015 19.098-16.015 24.32-0.061 0.092-0.113 0.195-0.174 0.297h182.508v445.409c-0.020 22.426-18.186 40.591-40.602 40.591z" />
<glyph unicode="&#xe905;" glyph-name="visa" d="M997.639 779.803h-971.277c-14.577 0-26.361-11.803-26.361-26.361v-610.901c0-14.559 11.785-26.361 26.361-26.361h971.277c14.577 0 26.361 11.803 26.361 26.361v610.901c0 14.559-11.785 26.361-26.361 26.361zM79.284 579.263h109.29c14.74-0.562 26.615-5.258 30.713-21.013l23.769-114.312c-23.352 59.794-79.628 109.543-164.678 130.139l0.907 5.185zM211.526 318.55l-63.13 215.678c45.38-29.045 84.034-75.132 97.65-107.205l7.361-26.633 69.040 176.39h74.697l-111.012-258.176-74.606-0.054zM452.043 318.332h-70.491l44.075 258.683h70.527l-44.111-258.683zM574.713 314.47c-31.601 0.326-62.042 6.581-78.541 13.815l9.917 57.89 9.083-4.116c23.152-9.663 38.146-13.58 66.375-13.58 20.252 0 41.954 7.923 42.153 25.256 0.127 11.331-9.083 19.418-36.533 32.109-26.76 12.365-62.187 33.106-61.752 70.255 0.381 50.275 49.478 85.358 119.152 85.358 27.304 0 49.188-5.62 63.148-10.86l-9.518-56.059-6.364 2.992c-12.981 5.222-29.679 10.262-52.759 9.899-27.594 0-40.394-11.495-40.394-22.246-0.145-12.111 14.939-20.088 39.597-32.091 40.666-18.457 59.467-40.848 59.214-70.273-0.544-53.666-48.644-88.349-122.778-88.349zM880.208 318.241c0 0-6.436 29.734-8.576 38.763-10.262 0-82.203 0.109-90.289 0.109-2.738-6.98-14.812-38.871-14.812-38.871h-74.026l104.666 237.054c7.433 16.843 20.034 21.466 36.931 21.466h54.463l57.056-258.502-65.414-0.018zM839.071 507.014c-3.59-9.736-9.772-25.382-9.373-24.693 0 0-22.282-57.419-28.084-72.304h58.543c-2.828 12.945-16.335 74.697-16.335 74.697l-4.75 22.3z" />
<glyph unicode="&#xe906;" glyph-name="mastercard" d="M272.879 492.002c-19.182 0-33.886-6.164-33.886-6.164l-4.061-24.113c0 0 12.129 4.931 30.495 4.931 10.425 0 18.040-1.16 18.040-9.627 0-5.149-0.925-7.053-0.925-7.053s-8.213 0.671-12.020 0.671c-24.204 0-49.623-10.298-49.623-41.464 0-24.548 16.662-30.151 27.014-30.151 19.744 0 28.265 12.8 28.7 12.836l-0.925-10.697h24.639l10.987 77.054c-0.018 32.725-28.537 33.777-38.436 33.777zM259.064 402.493c-8.684 0-10.951 6.618-10.951 10.57 0 7.651 4.152 16.861 24.657 16.861 4.786-0.018 5.294-0.508 6.092-0.653 0.544-4.714-2.937-26.778-19.798-26.778zM346.47 457.047c0-13.978 33.342-7.107 33.342-41.881 0-37.185-36.025-35.554-42.316-35.554-23.479 0-30.731 3.227-31.402 3.408l3.735 24.494c0.036 0.181 11.785-4.279 24.857-4.279 7.542 0 17.333 0.743 17.333 9.736 0 13.525-35.028 10.262-35.028 42.316 0 28.265 20.995 36.533 41.7 36.533 15.991 0 25.818-2.194 25.818-2.194l-3.535-24.693c0 0-15.175 1.251-19.109 1.251-9.972-0.018-15.393-2.194-15.393-9.138zM412.882 414.477c-0.616-3.825 0.453-9.029 10.189-9.029 2.484 0 5.294 0.834 7.216 0.834l-3.499-23.787c-2.81-0.78-10.769-3.608-20.977-3.68-13.036-0.127-22.3 7.198-22.3 23.714 0 11.096 15.9 102.527 16.517 103.125h27.975l-2.846-16.317h13.96l-3.572-26.325h-14.812l-7.85-48.535zM520.829 426.026c0 0 3.68 18.13 3.68 25.509 0 18.439-9.174 40.92-39.887 40.92-28.138-0.018-48.97-30.332-48.97-64.598 0-39.542 26.090-48.934 48.335-48.934 20.524 0 29.552 4.605 29.552 4.605l4.931 26.978c0 0-15.61-6.89-29.716-6.89-30.042 0-24.784 22.409-24.784 22.409h56.857zM484.714 467.381c15.792 0 12.873-17.75 12.873-19.164h-31.057c0 1.813 2.937 19.164 18.185 19.164zM230.926 514.303l-22.065-133.258h-28.646l15.937 100.46-35.952-100.46h-19.273l-2.502 100.46-17.024-100.46h-26.996l22.373 133.258h40.829l1.432-81.768 27.576 81.768h44.31zM584.884 531.853h-145.296c1.432 2.72 6.509 13.67 14.16 28.156h119.787c4.297-9.101 8.068-18.493 11.35-28.156zM558.395 587.622h-89.074c5.711 9.428 12.020 19.073 18.729 28.138h49.931c7.397-8.92 14.232-18.312 20.415-28.138zM511.909 253.081c-9.736 8.793-18.547 18.529-26.869 28.718h54.264c-8.177-10.026-17.115-19.418-26.688-28.138h-0.054c0-0.018 0.018-0.018 0.018-0.018-0.218-0.181-0.453-0.363-0.671-0.562zM558.722 308.886h-93.244c-5.675 9.065-10.969 18.366-15.52 28.138h124.066c-4.551-9.718-9.645-19.109-15.302-28.138zM591.973 490.334c-3.717-7.578-6.998-14.522-10.407-32.453-19.418 6.871-20.941-30.731-29.081-77.054h-28.718l17.459 108.456h26.053l-2.52-15.719c0 0 9.283 17.097 21.811 17.097 3.662 0.036 5.403-0.326 5.403-0.326zM643.771 406.155c9.428 0 23.134 6.871 23.134 6.871l-5.004-30.531c0 0-15.048-3.825-24.476-3.825-33.396 0-50.348 23.044-50.348 57.944 0 52.632 31.42 80.662 63.71 80.662 14.577 0 31.51-6.853 31.51-6.853l-4.569-29.643c0 0-11.44 7.995-25.673 7.995-19.037 0-36.116-18.167-36.116-51.2 0-16.263 7.959-31.42 27.83-31.42zM916.922 396.474c-1.36-0.725-2.411-1.777-3.173-3.155-0.761-1.36-1.142-2.774-1.142-4.242s0.381-2.865 1.142-4.206c0.743-1.342 1.795-2.411 3.137-3.173 1.36-0.743 2.756-1.124 4.206-1.124 1.487 0 2.901 0.381 4.224 1.124 1.342 0.761 2.393 1.831 3.137 3.173 0.78 1.342 1.124 2.738 1.124 4.206 0 1.487-0.363 2.901-1.124 4.242-0.743 1.378-1.831 2.429-3.191 3.155-1.342 0.743-2.72 1.106-4.17 1.106-1.396 0-2.792-0.363-4.17-1.106zM927.239 392.648c0.635-1.142 0.979-2.321 0.979-3.535s-0.308-2.411-0.943-3.517c-0.616-1.124-1.487-1.976-2.629-2.647-1.124-0.616-2.284-0.943-3.499-0.943-1.233 0-2.411 0.326-3.517 0.943-1.142 0.635-1.994 1.505-2.647 2.647s-0.943 2.303-0.943 3.517 0.308 2.393 0.979 3.535c0.635 1.124 1.487 1.994 2.647 2.629s2.303 0.907 3.481 0.907 2.339-0.308 3.445-0.907c1.16-0.635 2.012-1.487 2.647-2.629zM813.634 424.848c0-22.935 11.404-45.398 34.683-45.398 16.771 0 26.053 11.694 26.053 11.694l-1.215-9.99h27.214l21.394 133.058-28.066-0.054-6.037-37.439c0 0-10.516 14.559-27.014 14.559-25.654-0.018-47.012-30.93-47.012-66.429zM880.68 441.147c0-14.776-7.307-34.52-22.463-34.52-10.080 0-14.794 8.449-14.794 21.72 0 21.702 9.736 36.007 22.046 36.007 10.044-0.018 15.211-6.926 15.211-23.207zM926.205 301.018c-0.199 0.181-0.453 0.381-0.78 0.471 0.78 0.054 1.432 0.344 1.904 0.834 0.453 0.49 0.707 1.070 0.707 1.741 0 0.471-0.145 0.925-0.417 1.342s-0.671 0.725-1.16 0.888c-0.453 0.181-1.233 0.272-2.303 0.272h-3.155v-9.156h1.487v3.898h0.852c0.508 0 0.925-0.109 1.16-0.326 0.381-0.308 0.925-1.015 1.559-2.121l0.798-1.45h1.831l-1.124 1.795c-0.544 0.834-0.997 1.432-1.36 1.813zM924.265 302.541h-1.813v2.756h1.704c0.707 0 1.178-0.054 1.45-0.163 0.29-0.109 0.471-0.272 0.635-0.471 0.145-0.218 0.218-0.453 0.218-0.707 0-0.417-0.145-0.78-0.453-1.033s-0.907-0.381-1.741-0.381zM997.639 779.803h-971.277c-14.577 0-26.361-11.803-26.361-26.361v-610.901c0-14.559 11.785-26.361 26.361-26.361h971.277c14.577 0 26.361 11.803 26.361 26.361v610.901c0 14.559-11.785 26.361-26.361 26.361zM932.061 297.899c-0.761-1.378-1.795-2.429-3.137-3.173s-2.756-1.124-4.206-1.124c-1.487 0-2.901 0.381-4.242 1.124-1.324 0.743-2.375 1.795-3.155 3.173-0.743 1.324-1.124 2.738-1.124 4.206s0.381 2.865 1.142 4.242c0.743 1.378 1.831 2.411 3.173 3.155 1.36 0.707 2.738 1.088 4.188 1.088 1.432 0 2.81-0.381 4.152-1.088 1.36-0.743 2.429-1.777 3.173-3.155 0.761-1.378 1.124-2.792 1.124-4.242s-0.326-2.901-1.088-4.206zM951.062 447.982c0.036-145.133-117.557-262.835-262.708-262.871-67.88-0.018-129.777 25.709-176.408 67.971-46.631-42.189-108.401-67.898-176.172-67.898-145.061 0-262.799 117.72-262.799 262.799 0 144.499 116.814 261.874 261.113 262.817 0.562 0 1.124 0 1.686 0 67.771 0 129.559-25.709 176.19-67.898 46.613 42.207 108.437 67.934 176.263 67.952 145.151 0.054 262.835-117.593 262.871-262.744-0.036-0.036-0.036-0.073-0.036-0.127zM917.394 393.537v-9.138h1.487v3.88h0.852c0.526 0 0.943-0.109 1.197-0.308 0.381-0.326 0.888-1.015 1.559-2.158l0.78-1.432h1.831l-1.124 1.795c-0.526 0.852-0.997 1.45-1.342 1.813-0.218 0.199-0.453 0.363-0.78 0.471 0.78 0.054 1.414 0.344 1.886 0.834 0.453 0.471 0.725 1.088 0.725 1.741 0 0.453-0.145 0.925-0.435 1.342-0.29 0.399-0.671 0.707-1.124 0.888s-1.251 0.272-2.321 0.272h-3.191zM922.67 391.669c0.163-0.236 0.236-0.435 0.236-0.743 0-0.399-0.163-0.743-0.435-0.997-0.344-0.272-0.907-0.381-1.759-0.381h-1.795v2.756h1.668c0.725 0 1.197-0.054 1.487-0.145 0.236-0.127 0.453-0.254 0.598-0.49zM726.463 492.002c-19.218 0-33.904-6.164-33.904-6.164l-4.079-24.113c0 0 12.147 4.931 30.495 4.931 10.425 0 18.058-1.16 18.058-9.627 0-5.149-0.961-7.053-0.961-7.053s-8.195 0.671-12.039 0.671c-24.186 0-49.586-10.298-49.586-41.464 0-24.548 16.68-30.151 27.014-30.151 19.726 0 28.247 12.8 28.7 12.836l-0.925-10.697h24.621l10.987 77.054c0.054 32.725-28.483 33.777-38.382 33.777zM712.684 402.493c-8.703 0-10.951 6.618-10.951 10.57 0 7.651 4.152 16.861 24.657 16.861 4.768-0.018 5.276-0.508 6.092-0.653 0.526-4.714-2.973-26.778-19.798-26.778zM816.48 457.899c-19.418 6.871-20.904-30.713-29.081-77.054h-28.718l17.459 108.456h26.071l-2.502-15.719c0 0 9.301 17.097 21.829 17.097 3.644 0 5.385-0.363 5.385-0.363-3.717-7.56-7.016-14.504-10.443-32.417z" />
<glyph unicode="&#xe907;" glyph-name="yotube-small" d="M844.010 677.043c-15.188 13.787-34.423 22.829-55.46 25.153-45.723 5.118-91.861 7.694-138.153 8.985-45.994 1.283-92.185 1.283-138.274 1.256-46.082 0.027-92.27 0.027-138.27-1.256-46.296-1.292-92.448-3.868-138.197-8.985-21.017-2.326-40.243-11.372-55.417-25.165-15.077-13.704-26.155-32.109-31.001-53.267-6.542-28.36-9.852-57.95-11.523-87.723-1.678-29.899-1.72-59.419-1.72-88.078 0-28.62 0.001-58.102 1.639-88.019 1.631-29.76 4.9-59.348 11.446-87.713 4.875-21.166 15.958-39.576 31.034-53.28 15.165-13.785 34.372-22.826 55.383-25.152 45.755-5.117 91.907-7.693 138.204-8.984 45.999-1.283 92.188-1.283 138.276-1.256 46.109-0.027 92.296-0.027 138.29 1.256 46.29 1.291 92.428 3.867 138.178 8.984 21.006 2.326 40.21 11.363 55.381 25.144 15.084 13.703 26.182 32.115 31.089 53.287 6.517 28.366 9.787 57.955 11.424 87.713 1.615 29.346 1.629 59.117 1.626 88.019h0.031v1.451h-0.031c0.001 57.425 0.001 118.246-12.891 174.349-4.875 21.167-15.97 39.575-31.064 53.278zM409.058 333.783v256.538l11.688-6.102c35.402-18.484 70.702-36.904 106.033-55.34 42.504-22.179 85.059-44.385 127.901-66.759l13.584-7.094-130.582-67.718c-38.933-20.184-77.866-40.364-116.967-60.618l-11.656-6.038v13.131z" />
<glyph unicode="&#xe908;" glyph-name="youtube-circle" d="M322.103 384.665h32.205v-159.977h31.121v159.977h32.169v27.238h-95.495zM513.201 517.603c4.227 0 7.586 1.12 10.061 3.414 2.475 2.366 3.739 5.581 3.739 9.627v82.905c0 3.323-1.264 6.033-3.811 8.038-2.547 2.077-5.852 3.107-9.988 3.107-3.775 0-6.846-1.030-9.248-3.107-2.366-2.005-3.522-4.732-3.522-8.038v-82.905c0-4.154 1.102-7.369 3.323-9.627 2.186-2.294 5.364-3.414 9.447-3.414zM581.819 364.489c-4.299 0-8.543-1.102-12.734-3.287-4.136-2.186-8.11-5.437-11.813-9.627v60.328h-27.906v-187.215h27.906v10.584c3.594-4.263 7.55-7.369 11.777-9.392 4.19-2.005 9.031-2.998 14.468-2.998 8.146 0 14.468 2.583 18.73 7.803 4.335 5.256 6.52 12.734 6.52 22.505v76.656c0 11.325-2.294 19.941-6.954 25.793-4.588 5.888-11.253 8.85-19.995 8.85zM580.302 257.001c0-4.443-0.813-7.586-2.402-9.519-1.589-1.969-4.064-2.926-7.442-2.926-2.33 0-4.516 0.524-6.665 1.481-2.113 0.957-4.335 2.637-6.52 4.877v86.048c1.878 1.933 3.775 3.36 5.672 4.227 1.897 0.957 3.883 1.373 5.852 1.373 3.703 0 6.593-1.192 8.616-3.558 1.933-2.438 2.89-5.961 2.89-10.657v-71.346zM480.96 257.85c-2.583-2.962-5.437-5.401-8.543-7.369-3.107-1.933-5.708-2.89-7.694-2.89-2.619 0-4.479 0.704-5.672 2.186-1.12 1.445-1.734 3.811-1.734 7.062v105.971h-27.581v-115.508c0-8.254 1.626-14.323 4.841-18.514 3.287-4.1 8.038-6.141 14.432-6.141 5.184 0 10.548 1.409 16.057 4.371 5.509 2.998 10.801 7.225 15.913 12.806v-15.136h27.617v138.104h-27.617v-104.941zM512.009 866.889c-245.646 0-444.782-199.136-444.782-444.782 0-245.682 199.136-444.782 444.782-444.782s444.782 199.1 444.782 444.782c0 245.646-199.154 444.782-444.782 444.782zM583.86 647.217h31.049v-116.664c0-3.631 0.704-6.213 2.005-7.803 1.264-1.626 3.396-2.475 6.322-2.475 2.258 0 5.148 1.102 8.67 3.215 3.45 2.186 6.665 4.895 9.555 8.254v115.472h31.121v-152.156h-31.121v16.798c-5.672-6.177-11.65-10.928-17.882-14.143-6.177-3.215-12.174-4.877-18.026-4.877-7.189 0-12.589 2.294-16.256 6.846-3.594 4.479-5.437 11.253-5.437 20.392v127.14zM468.443 612.429c0 11.74 4.154 21.133 12.517 28.195 8.399 6.918 19.652 10.44 33.758 10.44 12.878 0 23.391-3.703 31.645-11.036 8.182-7.333 12.282-16.87 12.282-28.502v-78.571c0-13.059-4.028-23.246-12.029-30.615-8.11-7.369-19.182-11.072-33.307-11.072-13.583 0-24.474 3.811-32.638 11.397-8.146 7.694-12.246 17.99-12.246 30.904v78.86zM383.767 701.295l22.722-82.4h2.222l21.62 82.4h35.564l-40.712-120.692v-85.561h-35.005v81.749l-41.669 124.503h35.257zM790.871 267.206c0-55.036-44.632-99.703-99.667-99.703h-346.361c-55.072 0-99.703 44.668-99.703 99.703v80.16c0 55.072 44.632 99.703 99.703 99.703h346.361c55.036 0 99.667-44.632 99.667-99.703v-80.16zM665.176 366.223c-12.391 0-22.397-3.739-30.236-11.325-7.803-7.514-11.74-17.322-11.74-29.207v-62.098c0-13.33 3.594-23.77 10.693-31.32 7.098-7.586 16.834-11.397 29.207-11.397 13.763 0 24.095 3.558 30.977 10.693 6.99 7.189 10.404 17.845 10.404 32.024v7.098h-28.394v-6.286c0-8.146-0.957-13.402-2.745-15.768s-5.003-3.558-9.591-3.558c-4.407 0-7.514 1.373-9.356 4.154-1.806 2.854-2.673 7.875-2.673 15.172v25.991h52.778v35.275c0 13.059-3.36 23.065-10.151 30.092-6.809 6.972-16.545 10.458-29.17 10.458zM676.086 311.892h-24.384v13.962c0 5.78 0.885 9.988 2.818 12.391 1.933 2.583 5.075 3.811 9.483 3.811 4.154 0 7.297-1.228 9.176-3.811 1.897-2.402 2.89-6.593 2.89-12.391v-13.962z" />
<glyph unicode="&#xe909;" glyph-name="fb-circle" d="M512.009 866.853c-245.646 0-444.782-199.172-444.782-444.782 0-245.646 199.136-444.745 444.782-444.745s444.782 199.1 444.782 444.745c0 245.61-199.154 444.782-444.782 444.782zM629.72 423.932h-77.017c0-123.076 0-274.672 0-274.672h-114.153c0 0 0 150.043 0 274.672h-54.295v96.976h54.295v62.838c0 44.975 21.35 115.183 115.219 115.183l84.531-0.325v-94.194c0 0-51.405 0-61.375 0-10.025 0-24.203-5.003-24.203-26.389v-57.131h87.024l-10.025-96.958z" />
<glyph unicode="&#xe90a;" glyph-name="pencil" d="M0 181.76v-194.56h194.56l563.2 568.32-194.56 194.56-563.2-568.32zM906.24 704c20.48 20.48 20.48 51.2 0 71.68l-117.76 117.76c-20.48 20.48-51.2 20.48-71.68 0l-92.16-92.16 194.56-194.56 87.040 97.28zM460.8 89.6l-102.4-102.4h665.6v102.4h-563.2z" />
<glyph unicode="&#xe90b;" glyph-name="tw" d="M512.027 866.853c-245.646 0-444.782-199.172-444.782-444.782 0-245.646 199.136-444.745 444.782-444.745s444.745 199.1 444.745 444.745c0 245.61-199.118 444.782-444.745 444.782zM736.071 511.751c0.235-4.805 0.325-9.627 0.325-14.504 0-148.128-112.744-318.906-318.906-318.906-63.29 0-122.227 18.55-171.826 50.339 8.778-1.030 17.683-1.553 26.732-1.553 52.525 0 100.859 17.918 139.205 47.973-49.039 0.921-90.419 33.343-104.688 77.866 6.828-1.337 13.854-2.005 21.079-2.005 10.223 0 20.121 1.337 29.532 3.919-51.297 10.295-89.932 55.632-89.932 109.89 0 0.488 0 0.957 0.018 1.445 15.1-8.399 32.386-13.438 50.773-14.034-30.092 20.139-49.87 54.403-49.87 93.309 0 20.537 5.527 39.809 15.172 56.354 55.288-67.805 137.887-112.437 231.052-117.097-1.915 8.182-2.908 16.762-2.908 25.54 0 61.881 50.177 112.076 112.094 112.076 32.241 0 61.357-13.619 81.804-35.384 25.54 5.003 49.527 14.359 71.183 27.202-8.399-26.19-26.154-48.154-49.31-62.008 22.704 2.709 44.307 8.742 64.392 17.647-14.992-22.524-34.011-42.266-55.921-58.070z" />
<glyph unicode="&#xe90c;" glyph-name="odnoklassniki" d="M512.412 523.328c42.013 0.149 75.483 33.908 75.322 76.008-0.149 42.121-33.687 75.644-75.716 75.674-42.378 0.041-76.235-34.090-75.913-76.587 0.311-41.948 34.156-75.245 76.312-75.096zM512 888c-243.012 0-440-197.001-440-440s196.988-440 440-440 440 197.001 440 440-196.988 440-440 440zM512.633 754.199c85.709-0.238 154.493-70.335 154.050-156.992-0.43-84.653-70.346-153.257-155.9-152.977-84.683 0.292-154.137 70.495-153.643 155.321 0.471 85.751 69.97 154.869 155.494 154.632zM686.212 383.348c-18.947-19.449-41.769-33.529-67.094-43.362-23.953-9.277-50.188-13.948-76.169-17.075 3.933-4.263 5.781-6.359 8.222-8.818 35.254-35.447 70.681-70.702 105.814-106.244 11.968-12.123 14.467-27.14 7.881-41.208-7.189-15.392-23.339-25.511-39.174-24.426-10.035 0.688-17.848 5.674-24.789 12.672-26.609 26.77-53.725 53.068-79.777 80.346-7.613 7.947-11.248 6.426-17.957-0.467-26.758-27.57-53.976-54.697-81.324-81.67-12.293-12.123-26.913-14.318-41.167-7.386-15.153 7.332-24.778 22.798-24.050 38.362 0.523 10.495 5.692 18.549 12.904 25.726 34.897 34.836 69.702 69.768 104.502 104.687 2.315 2.315 4.456 4.767 7.816 8.376-47.472 4.964-90.282 16.64-126.923 45.295-4.552 3.561-9.248 7.010-13.393 11.001-16.049 15.405-17.665 33.058-4.977 51.231 10.863 15.554 29.085 19.717 48.043 10.774 3.669-1.724 7.172-3.896 10.519-6.199 68.288-46.936 162.112-48.212 230.685-2.1 6.793 5.191 14.053 9.45 22.467 11.604 16.353 4.207 31.615-1.808 40.391-16.126 10.038-16.362 9.927-32.313-2.446-45.018z" />
<glyph unicode="&#xe90d;" glyph-name="play-triangle" d="M806.558 492.826l-2.68 1.531-486.043 446.967c-27.327 24.904-71.771 24.904-99.098 0l-0.382-0.892c-13.027-11.492-21.328-27.584-21.328-45.589v-893.931c0-18.262 8.683-34.479 22.091-45.975l-0.257-0.257c27.456-24.904 71.771-24.904 99.098 0l488.727 447.988c27.074 24.643 27.074 65.125-0.129 90.158z" />
<glyph unicode="&#xe90e;" glyph-name="next" d="M512.033 960c-282.752 0-511.999-229.247-511.999-511.999s229.247-512.001 511.999-512.001 511.932 229.247 511.932 511.999-229.178 512.001-511.932 512.001zM276.065 194.881c-13.444 13.444-13.444 35.396 0 48.771l181.78 205.513-181.78 205.582c-13.444 13.513-13.444 35.396 0 48.84s35.327 13.444 48.771 0l202.908-229.452c6.928-6.859 10.153-15.846 10.014-24.762 0.274-9.123-3.017-18.11-9.809-24.969l-202.975-229.522c-13.582-13.513-35.396-13.513-48.909 0zM774.003 424.335l-202.975-229.522c-13.444-13.377-35.396-13.377-48.771 0-13.513 13.444-13.513 35.396 0 48.771l181.711 205.513-181.78 205.582c-13.513 13.444-13.513 35.327 0 48.771 13.377 13.444 35.327 13.444 48.771 0l202.975-229.452c6.928-6.859 10.084-15.846 10.014-24.831 0-8.987-3.155-17.972-9.945-24.831z" />
<glyph unicode="&#xe90f;" glyph-name="next-2" d="M851.91 448.009l-387.303 387.283c-27.833 27.844-27.833 72.981 0 100.814 27.833 27.844 72.968 27.844 100.812 0l437.714-437.708c13.916-13.923 20.867-32.152 20.867-50.389 0-18.244-6.964-36.486-20.867-50.402l-437.714-437.703c-27.844-27.857-72.981-27.857-100.812 0-27.833 27.833-27.833 72.975 0 100.805l387.303 387.301zM20.873 60.708c-27.833-27.833-27.833-72.975 0-100.805 27.833-27.857 72.954-27.857 100.814 0l437.714 437.701c13.916 13.916 20.855 32.158 20.855 50.402 0 18.237-6.953 36.479-20.855 50.389l-437.714 437.71c-27.857 27.844-72.981 27.844-100.814 0-27.833-27.833-27.833-72.968 0-100.814l387.312-387.283-387.312-387.301z" />
<glyph unicode="&#xe910;" glyph-name="vk" d="M512 896c-247.416 0-448-200.573-448-448s200.584-448 448-448 448 200.573 448 448-200.584 448-448 448zM739.25 399.545c20.88-20.396 42.974-39.589 61.717-62.090 8.307-9.953 16.133-20.245 22.092-31.828 8.505-16.507 0.823-34.612-13.952-35.589l-91.781 0.021c-23.706-1.962-42.569 7.596-58.473 23.805-12.693 12.912-24.474 26.71-36.705 40.068-4.997 5.48-10.258 10.642-16.528 14.7-12.515 8.142-23.38 5.645-30.548-7.421-7.308-13.3-8.976-28.037-9.668-42.843-0.998-21.644-7.529-27.3-29.241-28.311-46.396-2.171-90.423 4.867-131.346 28.257-36.093 20.636-64.036 49.756-88.383 82.727-47.404 64.272-83.715 134.82-116.34 207.389-7.343 16.342-1.972 25.088 16.057 25.428 29.955 0.58 59.909 0.504 89.864 0.028 12.189-0.196 20.255-7.168 24.944-18.675 16.188-39.829 36.036-77.719 60.9-112.867 6.63-9.36 13.393-18.688 23.027-25.297 10.632-7.299 18.732-4.888 23.751 6.982 3.21 7.542 4.592 15.608 5.292 23.696 2.38 27.692 2.664 55.372-1.458 82.957-2.565 17.262-12.275 28.408-29.482 31.668-8.764 1.656-7.476 4.901-3.22 9.908 7.398 8.652 14.326 14.007 28.178 14.007l103.696 0.021c16.342-3.21 20.012-10.543 22.228-27.005l0.089-115.237c-0.196-6.369 3.2-25.253 14.642-29.427 9.164-3.025 15.214 4.329 20.694 10.128 24.869 26.392 42.588 57.54 58.452 89.775 7.003 14.216 13.043 28.925 18.907 43.666 4.362 10.896 11.146 16.264 23.445 16.078l99.858-0.12c2.94 0 5.93-0.028 8.845-0.532 16.828-2.881 21.439-10.117 16.232-26.535-8.197-25.791-24.114-47.282-39.677-68.82-16.682-23.061-34.471-45.32-50.988-68.48-15.18-21.175-13.975-31.836 4.867-50.22z" />
<glyph unicode="&#xe911;" glyph-name="cubes" d="M813.481 173.798h-3.364c-0.161 0-0.316 0.041-0.477 0.041-0.261-0.007-0.515-0.041-0.779-0.041h-69.806v-54.93h74.43c14.148 0 26.105 12.579 26.105 27.465-0.007 14.893-11.961 27.465-26.109 27.465zM811.081 249.595c0 14.745-11.954 27.197-26.105 27.197h-45.928v-48.064h62.153c4.7 3.433 9.881 11.065 9.881 20.867zM907.459 431.282h-175.089c64.889 0 116.541 53.697 116.541 118.583v265.868c0 64.893-51.651 116.788-116.541 116.788h-265.864c-64.889 0-118.827-51.892-118.827-116.788v-265.864c0-24.094 7.858-46.508 20.331-65.181l-4.714 5.002c-22.157 22.154-51.569 34.359-83.075 34.359-31.509 0-60.989-12.205-83.147-34.359l-162.668-162.706c-45.884-45.884-45.866-120.547 0.017-166.434l162.713-162.709c22.157-22.154 51.717-34.359 83.222-34.359s61.061 12.205 83.219 34.359l162.139 162.709c16.839 16.836 27.946 37.555 31.379 59.307v-136.896c0-64.886 53.938-118.583 118.827-118.583h231.533c64.889 0 116.541 53.697 116.541 118.583v231.533c0.003 64.896-51.648 116.788-116.537 116.788zM614.171 834.636c39.731 0 77.19-15.363 105.483-43.264 10.797-10.65 10.924-28.035 0.271-38.839-10.656-10.801-28.045-10.924-38.842-0.275-17.945 17.694-41.709 27.444-66.911 27.444-52.544 0-95.29-42.746-95.29-95.29s42.746-95.29 95.29-95.29c27.846 0 54.223 12.136 72.367 33.298 9.874 11.515 27.214 12.847 38.726 2.97 11.515-9.87 12.847-27.211 2.973-38.722-28.591-33.353-70.166-52.475-114.069-52.475-82.831 0-150.22 67.389-150.22 150.22 0.003 82.834 67.392 150.223 150.223 150.223zM455.791 234.256c-4.94-14.337-20.568-21.958-34.911-17.018l-40.494 13.949-86.968-86.968 13.595-41.331c4.741-14.409-3.097-29.933-17.509-34.675-2.849-0.937-5.744-1.38-8.586-1.38-11.542 0-22.284 7.33-26.088 18.889l-74.269 225.776c-3.258 9.911-0.625 20.815 6.804 28.141 7.426 7.33 18.367 9.808 28.231 6.41l223.17-76.878c14.347-4.944 21.969-20.575 17.025-34.915zM557.096 314.498v-46.831c-3.433 21.745-14.543 42.471-31.382 59.314l-124.677 124.512c18.673-12.473 41.376-20.211 65.47-20.211h209.42c-64.893 0-118.831-51.892-118.831-116.784zM813.481 63.939h-100.752c-15.168 0-28.608 13.197-28.608 28.364v212.853c0 15.168 13.441 26.565 28.608 26.565h72.25c44.682 0 81.035-36.391 81.035-81.677 0-12.143-2.712-23.668-7.766-34.39 21.842-14.773 36.267-40.37 36.267-68.989-0.003-45.424-36.357-82.728-81.035-82.728zM274.19 202.674l48.414 48.41-72.562 24.997z" />
<glyph unicode="&#xe912;" glyph-name="bear" d="M613.376 668.16c-21.504 0-38.912 17.408-38.912 38.912s17.408 38.912 38.912 38.912c21.504 0 38.912-17.408 38.912-38.912s-17.408-38.912-38.912-38.912zM643.072 228.864c0-72.704-58.368-104.448-131.072-104.448s-131.072 32.768-131.072 104.448v61.44c0 72.704 58.368 131.072 131.072 131.072s131.072-58.368 131.072-131.072v-61.44zM353.28 706.048c0 21.504 17.408 38.912 38.912 38.912s38.912-17.408 38.912-38.912c0-21.504-17.408-38.912-38.912-38.912-21.504 1.024-38.912 18.432-38.912 38.912zM617.472 566.784c0-47.104-48.128-84.992-108.544-84.992s-108.544 37.888-108.544 84.992c0 47.104 48.128 84.992 108.544 84.992s108.544-38.912 108.544-84.992zM758.784 176.64c-15.36 8.192-13.312 23.552-13.312 32.768v131.072c45.056 9.216 145.408 10.24 145.408 99.328 0 44.032-35.84 60.416-79.872 56.32-34.816-3.072-52.224-26.624-111.616-5.12-7.168 3.072-28.672 21.504-16.384 35.84 30.72 37.888 48.128 86.016 48.128 139.264 0 8.192 0 25.6 7.168 28.672 39.936 16.384 66.56 57.344 66.56 104.448 0 62.464-50.176 113.664-111.616 113.664-33.792 0-63.488-15.36-83.968-38.912-2.048-2.048-5.12-6.144-13.312-3.072-27.648 13.312-51.2 17.408-83.968 17.408-34.816 0-60.416-5.12-90.112-19.456-9.216-3.072-15.36 7.168-20.48 11.264-20.48 20.48-48.128 32.768-78.848 32.768-61.44 0-111.616-51.2-111.616-113.664 0-48.128 29.696-89.088 71.68-106.496 4.096-2.048 10.24-6.144 11.264-26.624 2.048-52.224 17.408-100.352 48.128-138.24 11.264-14.336 0-31.744-16.384-37.888-60.416-18.432-75.776 1.024-111.616 5.12-44.032 4.096-79.872-11.264-79.872-56.32 0-87.040 100.352-90.112 145.408-99.328v-132.096c0-9.216 1.024-23.552-18.432-35.84-57.344-21.504-138.24-22.528-138.24-101.376 0-48.128 39.936-96.256 87.040-87.040 59.392 11.264 90.112 30.72 179.2 71.68 19.456 9.216 32.768 4.096 40.96 3.072 25.6-3.072 53.248-5.12 81.92-5.12 31.744 0 62.464 2.048 90.112 6.144 7.168 1.024 23.552 2.048 38.912-4.096 87.040-40.96 115.712-60.416 174.080-71.68 47.104-9.216 87.040 38.912 87.040 87.040-1.024 78.848-87.040 82.944-143.36 106.496z" />
<glyph unicode="&#xe913;" glyph-name="clipboard" d="M519.754 886.858h-22.528c-12.037 0-21.795 9.76-21.795 21.795v0.733c0 27.954-22.662 50.614-50.616 50.614h-1.17c-27.954 0-50.614-22.66-50.614-50.614v-0.733c0-12.037-9.76-21.797-21.795-21.797h-22.528c-23.995 0-43.446-19.451-43.446-43.446v-0.878c0-23.995 19.451-43.446 43.446-43.446h191.051c23.994 0 43.445 19.453 43.445 43.446v0.88c-0.002 23.994-19.453 43.446-43.45 43.446zM424.229 886.858c-12.119 0-21.942 9.825-21.942 21.942 0 12.119 9.825 21.944 21.942 21.944 12.119 0 21.942-9.825 21.942-21.944s-9.823-21.942-21.942-21.942zM521.92 38.4h-368.32c-32.316 0-58.514 26.197-58.514 58.514v702.173c0 32.316 26.197 58.514 43.885 58.514h118.553c-0.989-4.859-1.523-9.895-1.523-15.072 0-40.087 32.614-72.701 72.707-72.701h191.043c40.095 0 72.706 32.614 72.706 73.586 0 4.857-0.52 9.592-1.431 14.187h89.202c46.948 0 73.144-26.197 73.144-58.514v-439.597c-4.862 0.303-9.69 0.74-14.627 0.74-20.236 0-39.774-2.851-58.517-7.703v344.161h-512v-585.144h337.197c1.603-25.712 7.222-50.323 16.494-73.142zM738.744 316.342c-105.029 0-190.17-85.144-190.17-190.171s85.139-190.171 190.17-190.171 190.17 85.144 190.17 190.171-85.141 190.171-190.17 190.171zM863.008 165.244l-117.029-131.658c-5.764-6.487-13.794-9.813-21.879-9.813-6.422 0-12.879 2.1-18.265 6.413l-73.144 58.514c-12.614 10.086-14.664 28.501-4.563 41.116 10.084 12.628 28.506 14.672 41.121 4.57l51.448-41.157 98.578 110.9c10.722 12.072 29.222 13.171 41.301 2.428 12.082-10.742 13.166-29.228 2.431-41.311zM607.086 448h-380.342c-8.080 0-14.629 6.551-14.629 14.629v14.629c0 8.080 6.551 14.629 14.629 14.629h380.342c8.078 0 14.63-6.551 14.63-14.629v-14.629c-0.003-8.078-6.552-14.629-14.63-14.629zM607.086 579.658h-380.342c-8.080 0-14.629 6.551-14.629 14.629v14.629c0 8.080 6.551 14.629 14.629 14.629h380.342c8.078 0 14.63-6.551 14.63-14.629v-14.629c-0.003-8.080-6.552-14.629-14.63-14.629zM533.942 330.971h-307.2c-8.080 0-14.629 6.551-14.629 14.629v14.629c0 8.080 6.551 14.629 14.629 14.629h307.2c8.082 0 14.63-6.549 14.63-14.629v-14.629c-0.003-8.078-6.549-14.629-14.63-14.629zM504.686 199.314h-277.942c-8.080 0-14.629 6.551-14.629 14.629v14.629c0 8.080 6.551 14.629 14.629 14.629h277.944c8.080 0 14.629-6.549 14.629-14.629v-14.629c-0.002-8.078-6.551-14.629-14.63-14.629z" />
<glyph unicode="&#xe914;" glyph-name="gear" d="M887.633 551.43c0-0.554-4.716 16.794-13.141 37.828-1.825 4.591-3.751 9.104-5.722 13.575-9.187 20.729-7.257 51.301 4.222 70.82 22.166 37.727 45.824 94.008 13.533 126.076l-22.757 24.194c-27.699 27.722-86.442 4.079-125.356-16.651-19.99-10.683-51.135-11.667-71.842-2.503-4.037 1.783-8.12 3.506-12.24 5.146-21.035 8.406-41.685 31.164-47.814 52.96-11.833 42.054-35.906 97.125-81.198 97.125h-24.85c-39.163 0-66.142-57.186-80.599-98.848-7.404-21.404-29.403-44.143-50.276-52.9-3.63-1.515-7.219-3.076-10.785-4.697-20.628-9.371-51.011-7.279-70.511 4.245-37.376 22.060-95.157 46.604-128.002 13.718l-24.194-20.42c-28.457-28.438-2.933-89.97 18.226-129.194 10.744-19.949 11.912-51.075 2.725-71.782-1.414-3.178-2.79-6.356-4.12-9.594-8.633-20.933-31.556-41.357-53.431-47.302-42.073-11.441-99.481-35.45-99.481-81.93v-24.831c0-39.796 59.131-66.798 100.899-80.987 21.446-7.321 44.248-29.339 53.062-50.17 1.312-3.076 2.646-6.129 4-9.145 9.349-20.628 8.425-51.893-2.134-71.948-20.831-39.449-45.703-100.899-17.325-129.295l22.84-19.007c33.154-33.135 89.273-10.272 125.318 10.476 19.621 11.298 31.801 25.2 28.827 28.336-2.952 3.159 10.148-4.203 30.466-14.23 7.483-3.709 15.131-7.177 22.901-10.397 20.933-8.674 42.831-31.431 50.151-52.858 14.249-41.805 41.542-101.245 81.421-101.245h24.85c46.951 0 71.167 56.179 82.484 96.447 6.129 21.796 6.642 40.105 4.184 40.188-2.462 0.060 13.469 4.286 34.734 12.037 6.522 2.379 12.979 4.942 19.335 7.667 20.812 8.9 51.957 7.709 71.884-3.053 38.322-20.729 94.746-43.385 121.956-16.115l25.607 25.505c32.928 32.928 9.575 88.534-11.524 124.293-11.501 19.5-23.764 33.214-24.748 32.374-0.965-0.859 7.792 14.166 17.284 34.734 2.337 5.063 4.591 10.212 6.706 15.399 8.572 20.956 31.145 43.117 52.53 50.623 41.704 14.66 98.252 41.56 98.252 80.395v24.831c0 73.195-136.39 91.241-136.39 91.139 0.045-0.026 0.045-0.456 0.045-1.029zM510.351 179.312c-147.032 0-266.605 123.083-266.605 270.111 0 147.050 119.577 266.628 266.605 266.628 147.194 0 271.709-119.577 271.709-266.628 0-147.028-124.515-270.111-271.709-270.111z" />
<glyph unicode="&#xe915;" glyph-name="email" d="M166.416 533.89v60.664c0 34.418 27.884 62.3 62.3 62.3h566.583c34.416 0 62.3-27.882 62.3-62.3v-60.634l79.835 79.833c3.348 3.35 5.101 7.984 4.798 12.719-0.282 4.731-2.597 9.101-6.346 12.014l-385.637 300.069c-22.496 17.5-54 17.5-76.5 0l-385.649-300.067c-3.751-2.915-6.063-7.283-6.348-12.014-0.301-4.735 1.448-9.371 4.8-12.719l79.864-79.864zM1013.802 565.023c-6.181 2.55-13.299 1.134-18.031-3.601l-422.886-422.886c-16.15-16.15-38.065-25.233-60.9-25.233-22.831 0-44.75 9.083-60.881 25.233l-422.871 422.867c-4.735 4.735-11.851 6.151-18.031 3.584-6.168-2.55-10.202-8.583-10.202-15.267v-537.135c0-37.701 30.564-68.267 68.265-68.267h887.47c37.699 0 68.265 30.566 68.265 68.267v537.151c0 6.683-4.030 12.719-10.198 15.286zM701.167 561.556h-378.318c-18.847 0-34.133-15.282-34.133-34.133 0-18.849 15.286-34.131 34.133-34.131h378.318c18.851 0 34.133 15.284 34.133 34.131 0 18.851-15.282 34.133-34.133 34.133zM701.167 425.023h-378.318c-18.847 0-34.133-15.282-34.133-34.133 0-18.849 15.286-34.133 34.133-34.133h378.318c18.851 0 34.133 15.284 34.133 34.133 0 18.851-15.282 34.133-34.133 34.133z" />
<glyph unicode="&#xe916;" glyph-name="world" d="M995.499 279.563c18.437 52.775 28.496 109.45 28.496 168.44s-10.060 115.664-28.496 168.44c-0.45 1.585-0.983 3.131-1.629 4.619-71.114 197.406-260.261 338.939-481.867 338.939s-410.758-141.533-481.867-338.939c-0.646-1.492-1.184-3.034-1.629-4.619-18.437-52.775-28.496-109.45-28.496-168.44s10.060-115.664 28.496-168.44c0.45-1.585 0.983-3.131 1.629-4.619 71.114-197.411 260.261-338.939 481.867-338.939s410.753 141.533 481.867 338.939c0.646 1.487 1.179 3.029 1.629 4.619zM512.002 9.394c-19.498 0-50.936 35.288-77.211 114.123-12.683 38.043-22.835 81.776-30.233 129.35h214.888c-7.398-47.574-17.551-91.302-30.229-129.35-26.28-78.835-57.717-114.123-77.216-114.123zM395.653 326.261c-3.528 39.134-5.392 79.96-5.392 121.741s1.864 82.608 5.392 121.741h232.694c3.528-39.134 5.392-79.96 5.392-121.741s-1.864-82.608-5.392-121.741h-232.694zM73.399 447.998c0 42.226 6.013 83.072 17.204 121.741h231.436c-3.43-39.941-5.172-80.875-5.172-121.741s1.737-81.8 5.172-121.741h-231.436c-11.19 38.674-17.204 79.515-17.204 121.741zM512.002 886.606c19.498 0 50.94-35.288 77.216-114.123 12.678-38.043 22.835-81.776 30.229-129.345h-214.893c7.398 47.574 17.551 91.302 30.233 129.345 26.28 78.835 57.717 114.123 77.216 114.123zM701.961 569.739h231.436c11.19-38.669 17.204-79.515 17.204-121.741s-6.013-83.072-17.204-121.741h-231.436c3.43 39.941 5.172 80.875 5.172 121.741s-1.742 81.8-5.172 121.741zM904.72 643.133h-211.179c-13.054 90.015-35.449 170.773-66.867 228.226 121.81-33.022 222.727-117.333 278.046-228.226zM397.327 871.364c-31.418-57.453-53.813-138.211-66.867-228.231h-211.179c55.325 110.894 156.237 195.204 278.046 228.231zM119.28 252.867h211.179c13.054-90.015 35.449-170.773 66.867-228.231-121.81 33.027-222.722 117.333-278.046 228.231zM626.673 24.636c31.418 57.453 53.813 138.211 66.867 228.231h211.179c-55.32-110.899-156.237-195.204-278.046-228.231z" />
<glyph unicode="&#xe917;" glyph-name="present" d="M454.682 391.394c-84.336 0-332.548 0-332.548 0-26.349 0-47.91-21.557-47.91-47.906v-359.585c0-26.349 21.56-47.906 47.91-47.906 0 0 253.406 0 338.14 0 11.271 0 11.271 12.108 11.271 12.108v427.010c-0.003 0-0.003 16.279-16.862 16.279zM901.87 391.394c0 0-249.161 0-332.209 0-20.234 0-17.204-21.072-17.204-21.072v-422.608c0 0-0.164-11.707 12.007-11.707 84.35 0 337.4 0 337.4 0 26.349 0 47.91 21.557 47.91 47.906v359.574c0.007 26.349-21.553 47.906-47.903 47.906zM471.541 674.322c0 0 0 16.234-16.042 16.234-96.060 0-387.466 0-387.466 0-26.349 0-47.91-21.56-47.91-47.906v-149.548c0-26.349 21.56-47.906 47.91-47.906 0 0 292.712 0 388.779 0 14.73 0 14.73 12.775 14.73 12.775v216.351zM955.968 690.556c0 0-291.525 0-388.702 0-14.803 0-14.803-14.105-14.803-14.105v-218.777c0 0 0-12.478 17.997-12.478 96.374 0 385.508 0 385.508 0 26.349 0 47.91 21.557 47.91 47.906v149.548c0 26.346-21.56 47.906-47.91 47.906zM308.59 726.001c-21.92 0-41.941 1.738-59.498 5.169-44.594 8.712-75.243 25.669-93.701 51.833-16.538 23.449-21.599 52.357-15.047 85.924 11.477 58.73 50.918 91.072 111.052 91.072 12.726 0 26.702-1.469 41.543-4.37 37.753-7.375 86.039-29.023 129.171-57.906 73.177-49.009 76.797-79.477 73.153-98.134-5.358-27.414-30.981-47.002-78.336-59.889-31.993-8.705-71.481-13.7-108.336-13.7zM251.399 883.214c-23.288 0-31.292-6.506-35.686-29.009-3.595-18.398 0.939-24.824 2.426-26.936 6.227-8.831 22.447-16.196 45.676-20.73 12.534-2.45 28.021-3.745 44.772-3.745 36.835 0 69.285 5.581 90.818 11.686 1.567 0.443 4 2.297 1.393 3.85-28.15 22.932-79.652 53.554-122.581 61.941-10 1.948-19.026 2.942-26.817 2.942zM716.52 726.001c0 0 0 0-0.007 0-36.856 0-76.339 4.995-108.333 13.7-47.358 12.883-72.978 32.475-78.336 59.885-3.641 18.656-0.028 49.124 73.156 98.134 43.124 28.883 91.411 50.531 129.171 57.906 14.841 2.901 28.817 4.37 41.533 4.37 60.147 0 99.586-32.346 111.052-91.076 6.559-33.564 1.501-62.472-15.040-85.921-18.457-26.168-49.103-43.121-93.708-51.833-17.55-3.424-37.571-5.166-59.488-5.166zM624.924 818.805c-2.496-1.449-1.288-3.735 0.007-4.108 21.522-6.189 54.315-11.906 91.582-11.906 16.758 0 32.238 1.295 44.775 3.745 23.225 4.538 39.452 11.899 45.676 20.73 1.494 2.112 6.031 8.538 2.426 26.936-4.391 22.503-12.398 29.009-35.69 29.009-7.787 0-16.806-0.991-26.814-2.946-42.932-8.384-93.812-38.524-121.963-61.46z" />
<glyph unicode="&#xe918;" glyph-name="hourglass" d="M488.721 471.345c0-12.876 10.436-23.246 23.268-23.246s23.268 10.436 23.268 23.246c0.022 27.233 9.695 53.704 27.255 74.533 39.064 46.319 68.345 96.537 86.886 149.261 2.505 7.124 1.416 15.011-2.941 21.177-4.379 6.166-11.438 9.826-18.998 9.826h-230.962c-7.56 0-14.641-3.66-19.020-9.826-4.357-6.166-5.447-14.052-2.941-21.177 18.584-52.724 47.822-102.942 86.886-149.261 17.582-20.828 27.277-47.321 27.299-74.533zM535.257 378.075c0 12.854-10.436 23.246-23.268 23.246s-23.268-10.436-23.268-23.246c-0.022-33.595-20.087-66.82-56.493-93.77-77.866-57.495-136.146-119.958-173.227-185.623-4.074-7.233-4.009-16.035 0.196-23.138 4.139-7.168 11.808-11.547 20.087-11.547h465.453c8.257 0 15.904 4.379 20.087 11.547 4.161 7.102 4.227 15.904 0.174 23.138-37.059 65.665-95.361 128.128-173.205 185.623-36.449 26.95-56.515 60.175-56.537 93.77zM919.227 29.073h-13.922c-15.991 181.113-122.049 320.157-204.491 418.916 82.463 98.738 188.477 237.803 204.534 418.916h13.922c25.708 0 46.537 20.85 46.537 46.558s-20.828 46.537-46.537 46.537h-814.542c-25.708 0-46.537-20.85-46.537-46.537 0-25.708 20.828-46.558 46.537-46.558h13.922c16.013-181.135 122.028-320.2 204.491-418.916-82.441-98.738-188.477-237.781-204.512-418.916h-13.9c-25.708 0-46.537-20.806-46.537-46.515 0-25.73 20.828-46.58 46.537-46.58h814.542c25.708 0 46.537 20.85 46.537 46.58 0 25.708-20.85 46.515-46.58 46.515zM211.942 29.073c17.495 163.64 123.88 289.655 203.38 383.818l4.248 5.033c14.641 17.32 14.641 42.68 0 60.023l-4.227 5.011c-79.478 94.184-185.907 220.199-203.401 383.861h600.095c-17.495-163.662-123.923-289.677-203.401-383.861l-4.205-5.011c-14.641-17.32-14.641-42.68 0-60.023l4.248-5.033c79.478-94.162 185.863-220.177 203.358-383.818h-600.095z" />
</font>
</defs>
</svg>
